<?xml version="1.0" standalone="no"?><!DOCTYPE svg PUBLIC "-//W3C//DTD SVG 1.1//EN" "http://www.w3.org/Graphics/SVG/1.1/DTD/svg11.dtd"><svg t="1531985884931" class="icon" style="" viewBox="0 0 1024 1024" version="1.1" xmlns="http://www.w3.org/2000/svg" p-id="573" xmlns:xlink="http://www.w3.org/1999/xlink" width="128" height="128"><defs><style type="text/css"></style></defs><path d="M565.7890625 871.12109375c0.79101563-1.58203125 2.37304688-3.1640625 3.1640625-5.53710938l174.0234375-333.01757812c23.73046875-40.34179688 37.96875-87.80273438 37.96875-137.63671875C780.9453125 246.21875 659.12890625 124.40234375 510.41796875 124.40234375S239.09960937 246.21875 239.09960937 395.72070312c0 34.01367188 6.328125 66.4453125 18.19335938 96.50390626l-2.37304687-0.79101563 8.70117187 16.61132813c3.95507813 8.70117188 7.91015625 16.61132813 12.65625 24.52148437l174.81445313 333.80859375c0.79101563 2.37304688 2.37304688 4.74609375 3.16406249 6.328125l2.37304688 3.1640625c11.07421875 17.40234375 30.84960938 29.26757813 53.7890625 29.26757813s41.92382813-11.86523438 53.7890625-29.26757813l1.58203125-4.74609375z m-55.37109375-587.72460938c61.69921875 0 111.53320313 49.83398438 111.53320313 111.53320313s-49.83398438 111.53320313-111.53320313 111.53320312-112.32421875-49.83398438-112.32421875-110.7421875S448.71875 283.39648437 510.41796875 283.39648437z" fill="#d81e06" p-id="574"></path></svg>